<svg xmlns="http://www.w3.org/2000/svg" xmlns:svg="http://www.w3.org/2000/svg" xmlns:xlink="http://www.w3.org/1999/xlink" id="svg6865" width="198.159" height="346.62" version="1.1" viewBox="0 0 52.43 91.71"><defs id="defs6859"><linearGradient id="linearGradient6727" x1="63.106" x2="70.587" y1="-159.546" y2="-159.613" gradientTransform="translate(-11.433837,557.47803)" gradientUnits="userSpaceOnUse" xlink:href="#linearGradient1411"/><linearGradient id="linearGradient1411"><stop style="stop-color:#b88100;stop-opacity:1" id="stop1407" offset="0"/><stop id="stop1415" offset=".306" style="stop-color:#804d00;stop-opacity:1"/><stop style="stop-color:#804d00;stop-opacity:1" id="stop1417" offset=".665"/><stop style="stop-color:#b88100;stop-opacity:1" id="stop1409" offset="1"/></linearGradient><linearGradient id="linearGradient6729" x1="63.106" x2="70.587" y1="-159.546" y2="-159.613" gradientTransform="matrix(-1,0,0,1,122.25101,566.15388)" gradientUnits="userSpaceOnUse" xlink:href="#linearGradient1411"/><linearGradient id="linearGradient6731" x1="63.106" x2="70.587" y1="-159.546" y2="-159.613" gradientTransform="translate(-11.112597,572.78746)" gradientUnits="userSpaceOnUse" xlink:href="#linearGradient1411"/><linearGradient id="linearGradient6733" x1="63.106" x2="70.587" y1="-159.546" y2="-159.613" gradientTransform="translate(-11.379867,549.1341)" gradientUnits="userSpaceOnUse" xlink:href="#linearGradient1411"/><linearGradient id="linearGradient6735" x1="63.106" x2="70.587" y1="-159.546" y2="-159.613" gradientTransform="matrix(-1,0,0,1,122.32929,541.65055)" gradientUnits="userSpaceOnUse" xlink:href="#linearGradient1411"/><radialGradient id="radialGradient6737" cx="99.55" cy="267.867" r="49.876" fx="99.55" fy="267.867" gradientTransform="matrix(-0.00542231,1.1671147,-1.2422959,-0.00667912,391.01243,248.2179)" gradientUnits="userSpaceOnUse" xlink:href="#linearGradient6732"/><linearGradient id="linearGradient6732"><stop style="stop-color:#004300;stop-opacity:1" id="stop6726" offset="0"/><stop id="stop6728" offset=".705" style="stop-color:#00b700;stop-opacity:1"/><stop style="stop-color:#00fa00;stop-opacity:0" id="stop6730" offset="1"/></linearGradient><filter style="color-interpolation-filters:sRGB" id="filter7624" width="1.067" height="1.077" x="-.034" y="-.039"><feGaussianBlur id="feGaussianBlur7626" stdDeviation="1.624"/></filter><linearGradient id="linearGradient6739" x1="-97.585" x2="264.37" y1="265.948" y2="116.881" gradientTransform="matrix(1.2326262,0.01838706,0.5300458,-1.2682801,146.46341,1579.1026)" gradientUnits="userSpaceOnUse" xlink:href="#linearGradient825"/><linearGradient id="linearGradient825"><stop id="stop821" offset="0" style="stop-color:#004300;stop-opacity:1"/><stop style="stop-color:#00b700;stop-opacity:1" id="stop829" offset=".547"/><stop id="stop823" offset="1" style="stop-color:#00fa00;stop-opacity:0"/></linearGradient><filter style="color-interpolation-filters:sRGB" id="filter6633" width="1.11" height="1.054" x="-.055" y="-.027"><feGaussianBlur id="feGaussianBlur6635" stdDeviation="3.962"/></filter><linearGradient id="linearGradient6741" x1="61.107" x2="61.937" y1="350.622" y2="367.22" gradientTransform="translate(-0.75595236,-0.09449404)" gradientUnits="userSpaceOnUse" xlink:href="#linearGradient825"/><filter style="color-interpolation-filters:sRGB" id="filter6668" width="1.061" height="1.087" x="-.031" y="-.044"><feGaussianBlur id="feGaussianBlur6670" stdDeviation=".466"/></filter><linearGradient id="linearGradient6743" x1="61.107" x2="61.37" y1="350.622" y2="388.198" gradientTransform="translate(-1.2284226,-7.8430057)" gradientUnits="userSpaceOnUse" xlink:href="#linearGradient825"/><linearGradient id="linearGradient6745" x1="61.107" x2="61.937" y1="350.622" y2="367.22" gradientTransform="translate(-0.47247024,-14.457589)" gradientUnits="userSpaceOnUse" xlink:href="#linearGradient825"/><linearGradient id="linearGradient6747" x1="128.323" x2="150.128" y1="334.85" y2="379.212" gradientTransform="translate(-22.3062,-4.2607349)" gradientUnits="userSpaceOnUse" xlink:href="#linearGradient6732"/><filter style="color-interpolation-filters:sRGB" id="filter6722" width="1.103" height="1.055" x="-.051" y="-.028"><feGaussianBlur id="feGaussianBlur6724" stdDeviation=".521"/></filter><linearGradient id="linearGradient6749" x1="61.107" x2="61.559" y1="350.622" y2="393.678" gradientTransform="translate(-0.28348215,-25.418899)" gradientUnits="userSpaceOnUse" xlink:href="#linearGradient825"/><linearGradient id="linearGradient6751" x1="-3.468" x2="-79.794" y1="329.962" y2="424.563" gradientUnits="userSpaceOnUse" xlink:href="#linearGradient825"/><filter style="color-interpolation-filters:sRGB" id="filter6703" width="1.078" height="1.067" x="-.039" y="-.033"><feGaussianBlur id="feGaussianBlur6705" stdDeviation="1.111"/></filter><linearGradient id="linearGradient6753" x1="128.323" x2="150.128" y1="334.85" y2="379.212" gradientTransform="translate(-43.860506,-1.0025259)" gradientUnits="userSpaceOnUse" xlink:href="#linearGradient6732"/><linearGradient id="linearGradient6755" x1="128.323" x2="150.128" y1="334.85" y2="379.212" gradientTransform="translate(-55.640185,-4.5113664)" gradientUnits="userSpaceOnUse" xlink:href="#linearGradient6732"/><linearGradient id="linearGradient6759" x1="128.323" x2="150.128" y1="334.85" y2="379.212" gradientTransform="translate(-37.344088,-9.7746271)" gradientUnits="userSpaceOnUse" xlink:href="#linearGradient6732"/><linearGradient id="linearGradient6767" x1="146.362" x2="128.727" y1="328.015" y2="421.124" gradientTransform="translate(-43.860506,-1.0025259)" gradientUnits="userSpaceOnUse" xlink:href="#linearGradient6792"/><linearGradient id="linearGradient6792"><stop id="stop6786" offset="0" style="stop-color:#004300;stop-opacity:1"/><stop style="stop-color:#00b700;stop-opacity:1" id="stop6788" offset=".823"/><stop id="stop6790" offset="1" style="stop-color:#00fa00;stop-opacity:0"/></linearGradient><linearGradient id="linearGradient6769" x1="131.059" x2="207.205" y1="334.56" y2="384.724" gradientTransform="translate(-55.640185,-4.5113664)" gradientUnits="userSpaceOnUse" xlink:href="#linearGradient6856"/><linearGradient id="linearGradient6856"><stop id="stop6850" offset="0" style="stop-color:#004300;stop-opacity:1"/><stop style="stop-color:#00b700;stop-opacity:1" id="stop6852" offset=".484"/><stop id="stop6854" offset="1" style="stop-color:#00fa00;stop-opacity:0"/></linearGradient><linearGradient id="linearGradient6775" x1="152.474" x2="168.791" y1="355.791" y2="300.208" gradientTransform="translate(-55.640185,-4.5113664)" gradientUnits="userSpaceOnUse" xlink:href="#linearGradient6868"/><linearGradient id="linearGradient6868"><stop style="stop-color:#004300;stop-opacity:1" id="stop6862" offset="0"/><stop id="stop6864" offset=".325" style="stop-color:#00b700;stop-opacity:1"/><stop style="stop-color:#00fa00;stop-opacity:0" id="stop6866" offset="1"/></linearGradient><linearGradient id="linearGradient6785" x1="125.539" x2="175.538" y1="339.304" y2="347.122" gradientTransform="translate(-55.640185,-4.5113664)" gradientUnits="userSpaceOnUse" xlink:href="#linearGradient6732"/><linearGradient id="linearGradient9031" x1="63.106" x2="70.587" y1="-159.546" y2="-159.613" gradientTransform="translate(-11.433837,557.47803)" gradientUnits="userSpaceOnUse" xlink:href="#linearGradient1411"/><linearGradient id="linearGradient9033" x1="63.106" x2="70.587" y1="-159.546" y2="-159.613" gradientTransform="matrix(-1,0,0,1,122.25101,566.15388)" gradientUnits="userSpaceOnUse" xlink:href="#linearGradient1411"/><linearGradient id="linearGradient9035" x1="63.106" x2="70.587" y1="-159.546" y2="-159.613" gradientTransform="translate(-11.112597,572.78746)" gradientUnits="userSpaceOnUse" xlink:href="#linearGradient1411"/><linearGradient id="linearGradient9037" x1="63.106" x2="70.587" y1="-159.546" y2="-159.613" gradientTransform="translate(-11.379867,549.1341)" gradientUnits="userSpaceOnUse" xlink:href="#linearGradient1411"/><linearGradient id="linearGradient9039" x1="63.106" x2="70.587" y1="-159.546" y2="-159.613" gradientTransform="matrix(-1,0,0,1,122.32929,541.65055)" gradientUnits="userSpaceOnUse" xlink:href="#linearGradient1411"/><linearGradient id="linearGradient9041" x1="-97.585" x2="264.37" y1="265.948" y2="116.881" gradientTransform="matrix(1.2326262,0.01838706,0.5300458,-1.2682801,146.46341,1579.1026)" gradientUnits="userSpaceOnUse" xlink:href="#linearGradient825"/><linearGradient id="linearGradient9043" x1="61.107" x2="61.937" y1="350.622" y2="367.22" gradientTransform="translate(-0.75595236,-0.09449404)" gradientUnits="userSpaceOnUse" xlink:href="#linearGradient825"/><linearGradient id="linearGradient9045" x1="61.107" x2="61.37" y1="350.622" y2="388.198" gradientTransform="translate(-1.2284226,-7.8430057)" gradientUnits="userSpaceOnUse" xlink:href="#linearGradient825"/><linearGradient id="linearGradient9047" x1="61.107" x2="61.937" y1="350.622" y2="367.22" gradientTransform="translate(-0.47247024,-14.457589)" gradientUnits="userSpaceOnUse" xlink:href="#linearGradient825"/><linearGradient id="linearGradient9049" x1="128.323" x2="150.128" y1="334.85" y2="379.212" gradientTransform="translate(-22.3062,-4.2607349)" gradientUnits="userSpaceOnUse" xlink:href="#linearGradient6732"/><linearGradient id="linearGradient9051" x1="61.107" x2="61.559" y1="350.622" y2="393.678" gradientTransform="translate(-0.28348215,-25.418899)" gradientUnits="userSpaceOnUse" xlink:href="#linearGradient825"/><linearGradient id="linearGradient9053" x1="-3.468" x2="-79.794" y1="329.962" y2="424.563" gradientUnits="userSpaceOnUse" xlink:href="#linearGradient825"/><linearGradient id="linearGradient9055" x1="128.323" x2="150.128" y1="334.85" y2="379.212" gradientTransform="translate(-43.860506,-1.0025259)" gradientUnits="userSpaceOnUse" xlink:href="#linearGradient6732"/><linearGradient id="linearGradient9057" x1="128.323" x2="150.128" y1="334.85" y2="379.212" gradientTransform="translate(-55.640185,-4.5113664)" gradientUnits="userSpaceOnUse" xlink:href="#linearGradient6732"/><linearGradient id="linearGradient9059" x1="128.323" x2="150.128" y1="334.85" y2="379.212" gradientTransform="translate(-22.3062,-4.2607349)" gradientUnits="userSpaceOnUse" xlink:href="#linearGradient6732"/><linearGradient id="linearGradient9061" x1="128.323" x2="150.128" y1="334.85" y2="379.212" gradientTransform="translate(-37.344088,-9.7746271)" gradientUnits="userSpaceOnUse" xlink:href="#linearGradient6732"/><linearGradient id="linearGradient9063" x1="-3.468" x2="-79.794" y1="329.962" y2="424.563" gradientUnits="userSpaceOnUse" xlink:href="#linearGradient825"/><linearGradient id="linearGradient9065" x1="128.323" x2="150.128" y1="334.85" y2="379.212" gradientTransform="translate(-43.860506,-1.0025259)" gradientUnits="userSpaceOnUse" xlink:href="#linearGradient6732"/><linearGradient id="linearGradient9067" x1="128.323" x2="150.128" y1="334.85" y2="379.212" gradientTransform="translate(-43.860506,-1.0025259)" gradientUnits="userSpaceOnUse" xlink:href="#linearGradient6732"/><linearGradient id="linearGradient9069" x1="146.362" x2="128.727" y1="328.015" y2="421.124" gradientTransform="translate(-43.860506,-1.0025259)" gradientUnits="userSpaceOnUse" xlink:href="#linearGradient6792"/><linearGradient id="linearGradient9071" x1="131.059" x2="207.205" y1="334.56" y2="384.724" gradientTransform="translate(-55.640185,-4.5113664)" gradientUnits="userSpaceOnUse" xlink:href="#linearGradient6856"/><linearGradient id="linearGradient9073" x1="128.323" x2="150.128" y1="334.85" y2="379.212" gradientTransform="translate(-43.860506,-1.0025259)" gradientUnits="userSpaceOnUse" xlink:href="#linearGradient6732"/><linearGradient id="linearGradient9075" x1="128.323" x2="150.128" y1="334.85" y2="379.212" gradientTransform="translate(-43.860506,-1.0025259)" gradientUnits="userSpaceOnUse" xlink:href="#linearGradient6732"/><linearGradient id="linearGradient9077" x1="152.474" x2="168.791" y1="355.791" y2="300.208" gradientTransform="translate(-55.640185,-4.5113664)" gradientUnits="userSpaceOnUse" xlink:href="#linearGradient6868"/><linearGradient id="linearGradient9079" x1="128.323" x2="150.128" y1="334.85" y2="379.212" gradientTransform="translate(-43.860506,-1.0025259)" gradientUnits="userSpaceOnUse" xlink:href="#linearGradient6732"/><linearGradient id="linearGradient9081" x1="128.323" x2="150.128" y1="334.85" y2="379.212" gradientTransform="translate(-43.860506,-1.0025259)" gradientUnits="userSpaceOnUse" xlink:href="#linearGradient6732"/><linearGradient id="linearGradient9083" x1="152.474" x2="168.791" y1="355.791" y2="300.208" gradientTransform="translate(-55.640185,-4.5113664)" gradientUnits="userSpaceOnUse" xlink:href="#linearGradient6868"/><linearGradient id="linearGradient9085" x1="128.323" x2="150.128" y1="334.85" y2="379.212" gradientTransform="translate(-37.344088,-9.7746271)" gradientUnits="userSpaceOnUse" xlink:href="#linearGradient6732"/><linearGradient id="linearGradient9087" x1="125.539" x2="175.538" y1="339.304" y2="347.122" gradientTransform="translate(-55.640185,-4.5113664)" gradientUnits="userSpaceOnUse" xlink:href="#linearGradient6732"/><linearGradient id="linearGradient9089" x1="128.323" x2="150.128" y1="334.85" y2="379.212" gradientTransform="translate(-22.3062,-4.2607349)" gradientUnits="userSpaceOnUse" xlink:href="#linearGradient6732"/><linearGradient id="linearGradient9091" x1="128.323" x2="150.128" y1="334.85" y2="379.212" gradientTransform="translate(-22.3062,-4.2607349)" gradientUnits="userSpaceOnUse" xlink:href="#linearGradient6732"/><linearGradient id="linearGradient9093" x1="-3.468" x2="-79.794" y1="329.962" y2="424.563" gradientUnits="userSpaceOnUse" xlink:href="#linearGradient825"/><linearGradient id="linearGradient9095" x1="128.323" x2="150.128" y1="334.85" y2="379.212" gradientTransform="translate(-43.860506,-1.0025259)" gradientUnits="userSpaceOnUse" xlink:href="#linearGradient6732"/><linearGradient id="linearGradient9097" x1="128.323" x2="150.128" y1="334.85" y2="379.212" gradientTransform="translate(-22.3062,-4.2607349)" gradientUnits="userSpaceOnUse" xlink:href="#linearGradient6732"/><linearGradient id="linearGradient9099" x1="128.323" x2="150.128" y1="334.85" y2="379.212" gradientTransform="translate(-37.344088,-9.7746271)" gradientUnits="userSpaceOnUse" xlink:href="#linearGradient6732"/><linearGradient id="linearGradient9101" x1="128.323" x2="150.128" y1="334.85" y2="379.212" gradientTransform="translate(-43.860506,-1.0025259)" gradientUnits="userSpaceOnUse" xlink:href="#linearGradient6732"/><linearGradient id="linearGradient9103" x1="128.323" x2="150.128" y1="334.85" y2="379.212" gradientTransform="translate(-43.860506,-1.0025259)" gradientUnits="userSpaceOnUse" xlink:href="#linearGradient6732"/><linearGradient id="linearGradient9105" x1="128.323" x2="150.128" y1="334.85" y2="379.212" gradientTransform="translate(-43.860506,-1.0025259)" gradientUnits="userSpaceOnUse" xlink:href="#linearGradient6732"/><linearGradient id="linearGradient9107" x1="128.323" x2="150.128" y1="334.85" y2="379.212" gradientTransform="translate(-43.860506,-1.0025259)" gradientUnits="userSpaceOnUse" xlink:href="#linearGradient6732"/><linearGradient id="linearGradient9109" x1="152.474" x2="168.791" y1="355.791" y2="300.208" gradientTransform="translate(-55.640185,-4.5113664)" gradientUnits="userSpaceOnUse" xlink:href="#linearGradient6868"/><linearGradient id="linearGradient9111" x1="128.323" x2="150.128" y1="334.85" y2="379.212" gradientTransform="translate(-43.860506,-1.0025259)" gradientUnits="userSpaceOnUse" xlink:href="#linearGradient6732"/><linearGradient id="linearGradient9113" x1="63.106" x2="70.587" y1="-159.546" y2="-159.613" gradientTransform="translate(-11.433837,557.47803)" gradientUnits="userSpaceOnUse" xlink:href="#linearGradient1411"/><linearGradient id="linearGradient9115" x1="63.106" x2="70.587" y1="-159.546" y2="-159.613" gradientTransform="matrix(-1,0,0,1,122.25101,566.15388)" gradientUnits="userSpaceOnUse" xlink:href="#linearGradient1411"/><linearGradient id="linearGradient9117" x1="63.106" x2="70.587" y1="-159.546" y2="-159.613" gradientTransform="translate(-11.112597,572.78746)" gradientUnits="userSpaceOnUse" xlink:href="#linearGradient1411"/><linearGradient id="linearGradient9119" x1="63.106" x2="70.587" y1="-159.546" y2="-159.613" gradientTransform="translate(-11.379867,549.1341)" gradientUnits="userSpaceOnUse" xlink:href="#linearGradient1411"/><linearGradient id="linearGradient9121" x1="63.106" x2="70.587" y1="-159.546" y2="-159.613" gradientTransform="matrix(-1,0,0,1,122.32929,541.65055)" gradientUnits="userSpaceOnUse" xlink:href="#linearGradient1411"/></defs><metadata id="metadata6862"/><g id="layer1" transform="translate(2.8949846,-205.43478)"><g style="display:inline" id="g6725" transform="matrix(0.16235463,0.0079777,-0.00966591,0.13399851,2.8397853,174.11697)"><g id="g6587" transform="matrix(4.2553651,0,0,4.8170346,-81.726178,-1489.1898)"><path id="path6577" d="m 51.499201,392.68563 c 1.785932,0.85386 4.758695,1.99784 7.654017,-0.85045 v 2.92931 l 0.746336,0.14425 -0.84083,1.27315 -0.425222,1.27569 c -0.05717,0.43823 0.332417,0.0627 0.446561,0.47955 0.08802,0.32147 -0.504886,0.028 -0.46886,0.55494 0.02963,0.43336 0.683421,1.69691 0.778251,1.94207 l 1.511906,0.0945 -1.748142,1.79541 c -2.493211,1.68341 -5.007475,2.88264 -7.748511,-1.13392 l 0.176729,-0.55478 -0.718106,-1.446 0.74517,-0.0317 -0.174215,-0.89516 -1.283817,-2.40523 0.747972,0.13568 -0.03407,-2.46324 0.558186,0.762 z" style="opacity:1;fill:url(#linearGradient9031);fill-opacity:1;stroke:#000;stroke-width:.29999998;stroke-miterlimit:4;stroke-dasharray:none;stroke-dashoffset:0;stroke-opacity:1"/><path style="opacity:1;fill:url(#linearGradient9033);fill-opacity:1;stroke:#000;stroke-width:.29999998;stroke-miterlimit:4;stroke-dasharray:none;stroke-dashoffset:0;stroke-opacity:1" id="path6579" d="m 59.317976,401.36148 c -1.785932,0.85386 -4.758695,1.99784 -7.654017,-0.85045 v 2.9293 l -0.746336,0.14426 0.840829,1.27317 0.425226,1.27566 c 0.05717,0.43826 -0.33242,0.0627 -0.446562,0.47956 -0.08802,0.32147 0.504884,0.028 0.468858,0.55494 -0.02963,0.43336 -0.683421,1.6969 -0.778251,1.94206 l -1.511903,0.0945 1.748139,1.79541 c 2.493211,1.68341 5.007475,2.88263 7.748513,-1.13393 l -0.176731,-0.55478 0.718109,-1.446 -0.745173,-0.0317 0.174215,-0.89517 1.283816,-2.40522 -0.747969,0.13568 0.03407,-2.46322 -0.558186,0.76197 z"/><path id="path6581" d="m 51.820434,407.99506 c 1.785929,0.85386 4.758692,1.99784 7.654017,-0.85045 v 2.92928 l 0.746337,0.14425 -0.84083,1.27317 -0.425225,1.27567 c -0.05717,0.43825 0.33242,0.0627 0.446561,0.47958 0.08802,0.32147 -0.504883,0.028 -0.468858,0.55491 0.02963,0.43339 0.683422,1.69693 0.778251,1.94207 l 1.511903,0.0945 -1.748139,1.79541 c -2.493211,1.68341 -5.007475,2.88263 -7.748513,-1.13395 l 0.176728,-0.55476 -0.718105,-1.446 0.745172,-0.0317 -0.174215,-0.89517 -1.283816,-2.40522 0.747969,0.13568 -0.03407,-2.46325 0.558187,0.76198 z" style="opacity:1;fill:url(#linearGradient9035);fill-opacity:1;stroke:#000;stroke-width:.29999998;stroke-miterlimit:4;stroke-dasharray:none;stroke-dashoffset:0;stroke-opacity:1"/><path style="opacity:1;fill:url(#linearGradient9037);fill-opacity:1;stroke:#000;stroke-width:.29999998;stroke-miterlimit:4;stroke-dasharray:none;stroke-dashoffset:0;stroke-opacity:1" id="path6583" d="m 51.553162,384.3417 c 1.785932,0.85387 4.758695,1.99785 7.65402,-0.85045 v 2.92929 l 0.746337,0.14425 -0.84083,1.27317 -0.425225,1.27569 c -0.05717,0.43823 0.33242,0.0627 0.446561,0.47956 0.08802,0.32147 -0.504883,0.028 -0.468858,0.55491 0.02963,0.43339 0.683422,1.69693 0.778248,1.94207 l 1.511906,0.0945 -1.748139,1.7954 c -2.493211,1.68342 -5.007475,2.88264 -7.748513,-1.13392 l 0.176728,-0.55478 -0.718105,-1.446 0.745172,-0.0317 -0.174215,-0.89516 -1.283816,-2.40522 0.747969,0.13568 -0.03407,-2.46325 0.558186,0.762 z"/><path id="path6585" d="m 59.396259,376.85815 c -1.785932,0.85386 -4.758695,1.99784 -7.654018,-0.85045 v 2.92931 l -0.746336,0.14425 0.84083,1.27315 0.425222,1.27569 c 0.05717,0.43825 -0.332417,0.0627 -0.446561,0.47955 -0.08802,0.32147 0.504886,0.028 0.46886,0.55494 -0.02963,0.43336 -0.683421,1.69691 -0.77825,1.94207 l -1.511906,0.0945 1.748141,1.79541 c 2.493211,1.68341 5.007475,2.88264 7.748511,-1.13392 l -0.176728,-0.55478 0.718105,-1.446 -0.74517,-0.0317 0.174215,-0.89517 1.283817,-2.40522 -0.747972,0.13568 0.03407,-2.46324 -0.558186,0.762 z" style="opacity:1;fill:url(#linearGradient9039);fill-opacity:1;stroke:#000;stroke-width:.29999998;stroke-miterlimit:4;stroke-dasharray:none;stroke-dashoffset:0;stroke-opacity:1"/></g><g id="g6699" transform="translate(90.227323,-42.106086)"><ellipse id="ellipse6589" cx="59.901" cy="360.539" rx="57.896" ry="50.377" style="opacity:1;fill:url(#radialGradient6737);fill-opacity:1;stroke:none;stroke-width:1.43665099;stroke-miterlimit:4;stroke-dasharray:none;stroke-dashoffset:0;stroke-opacity:1;filter:url(#filter7624)"/><g id="g6697" transform="translate(-4.0101034,42.106086)"><g id="g6641"><path style="opacity:1;fill:url(#linearGradient9041);fill-opacity:1;fill-rule:nonzero;stroke:none;stroke-width:3.77952743;stroke-linecap:round;stroke-linejoin:bevel;stroke-miterlimit:4;stroke-dasharray:none;stroke-opacity:1;paint-order:markers fill stroke;filter:url(#filter6633)" id="path6591" d="m 240.34961,1213.0195 42.9707,118.8731 4.88867,12.1074 -2.74776,-5.4389 -27.36775,29.5951 -26.07394,37.9805 57.4082,-26.3281 8.78907,-8.7481 -3.25056,1.656 -18.1769,22.0008 -10.53572,35.1429 44.09404,-17.1922 -7.86357,7.178 -20.93777,30.2299 1.72321,29.3382 34.08789,-20.7539 1.18555,-1.5723 -27.75056,33.9852 20.34821,-4.1961 -2.22851,31.8925 0.0625,-5.6152 0.28097,-4.5357 14.22098,-1.4741 -2.11133,12.0723 8.27344,40.2344 1.7168,-19.8242 6.75781,3.3496 7.31836,-1.9356 4.03906,27.0156 4.29492,-40.8515 -0.14453,-0.5723 1.57422,-7.4316 10.56055,39.9199 -0.17383,-41.0742 -8.92383,-20.4844 -1.06054,-21.248 3.54882,3.6132 19.88672,25.3575 -12.95703,-29.2266 -11.71094,-11.0996 -3.49609,-22.2891 5.52148,4.3301 38.27344,11.3105 -23.95508,-21.7773 -25.46484,-20.1816 -3.58008,-13.9883 32.79688,7.459 -23.95508,-21.7754 -17.4043,-14.6407 -3.7952,-15.7435 11.89286,14.0873 58.32617,-7.2461 -44.69336,-19.8105 -36.36133,-13.795 -1.04882,-0.8261 -2.98438,-7.3047 13.12305,4.5351 58.32812,-7.2461 -44.69531,-19.8105 -44.30664,-15.8164 -55.52734,-71.3613 -1.00977,-0.049 z" transform="matrix(-0.26458333,0,0,0.26458333,118.34361,1.8898809)"/><path id="path6593" d="m 60.484058,355.1688 10.243351,-11.80539 7.324675,10.51979 -16.630952,13.79614 -19.843751,-13.79613 5.884954,-11.88624 z" style="opacity:1;fill:url(#linearGradient9043);fill-opacity:1;stroke:none;stroke-width:1;stroke-miterlimit:4;stroke-dasharray:none;stroke-dashoffset:0;stroke-opacity:1;filter:url(#filter6668)"/><path style="opacity:1;fill:url(#linearGradient9045);fill-opacity:1;stroke:none;stroke-width:1;stroke-miterlimit:4;stroke-dasharray:none;stroke-dashoffset:0;stroke-opacity:1;filter:url(#filter6668)" id="path6595" d="m 60.011587,347.42028 10.243351,-11.80539 7.324675,10.51979 -16.630952,13.79614 -19.843751,-13.79613 5.884954,-11.88624 z"/><path id="path6597" d="M 60.767539,340.8057 71.01089,329.00031 78.335565,339.5201 61.704613,353.31624 41.860862,339.52011 47.745816,327.63387 Z" style="opacity:1;fill:url(#linearGradient9047);fill-opacity:1;stroke:none;stroke-width:1;stroke-miterlimit:4;stroke-dasharray:none;stroke-dashoffset:0;stroke-opacity:1;filter:url(#filter6668)"/><path id="path6599" d="m 99.500689,320.68907 15.288531,11.27842 11.77968,40.10103 -14.286,-20.30115 z" transform="matrix(-1.2224229,-1.4447578,-1.6852819,1.0479582,731.82213,142.31013)" style="opacity:1;fill:url(#linearGradient9049);fill-opacity:1;stroke:none;stroke-width:1;stroke-miterlimit:4;stroke-dasharray:none;stroke-dashoffset:0;stroke-opacity:1;filter:url(#filter6722)"/><path style="opacity:1;fill:url(#linearGradient9051);fill-opacity:1;stroke:none;stroke-width:1;stroke-miterlimit:4;stroke-dasharray:none;stroke-dashoffset:0;stroke-opacity:1;filter:url(#filter6668)" id="path6601" d="m 60.956527,329.84439 7.030553,-7.08069 5.245807,10.3308 -11.339286,9.26043 -12.473216,-9.4494 3.239121,-10.18535 z"/><path id="path6603" d="m -51.593752,379.68007 3.878091,-6.30879 4.821931,-7.77646 6.114828,-9.12056 18.446399,-16.67516 16.8550196,-11.68671 -23.3917906,28.28121 -5.506116,20.75606 0.217836,25.38838 -11.144516,-23.57741 1.51663,27.55981 c -2.443933,-6.2385 -1.759173,-12.47699 -7.332976,-18.71549 l -0.493616,18.14605 -5.466582,-14.10969 -2.672873,13.35215 -1.511905,-9.63838 c -2.973118,11.51129 -8.189485,8.44147 -12.284228,12.6622 z" style="opacity:1;fill:url(#linearGradient9053);fill-opacity:1;stroke:none;stroke-width:1;stroke-miterlimit:4;stroke-dasharray:none;stroke-dashoffset:0;stroke-opacity:1;filter:url(#filter6703)"/><path style="opacity:1;fill:url(#linearGradient9055);fill-opacity:1;stroke:none;stroke-width:1;stroke-miterlimit:4;stroke-dasharray:none;stroke-dashoffset:0;stroke-opacity:1;filter:url(#filter6722)" id="path6605" d="m 80.703334,330.21306 19.298626,21.05304 5.01263,24.06062 -14.285996,-20.30115 z" transform="matrix(-1,0,0,1,76.322039,3.7594719)"/><path id="path6607" d="m 66.166704,320.43843 15.28853,11.27842 11.77968,40.10103 -14.286,-20.30115 z" transform="matrix(-1,0,0,1,76.322039,3.7594719)" style="opacity:1;fill:url(#linearGradient9057);fill-opacity:1;stroke:none;stroke-width:1;stroke-miterlimit:4;stroke-dasharray:none;stroke-dashoffset:0;stroke-opacity:1;filter:url(#filter6722)"/><path style="opacity:1;fill:url(#linearGradient9059);fill-opacity:1;stroke:none;stroke-width:1;stroke-miterlimit:4;stroke-dasharray:none;stroke-dashoffset:0;stroke-opacity:1;filter:url(#filter6722)" id="path6609" d="m 99.500689,320.68907 15.288531,11.27842 11.77968,40.10103 -14.286,-20.30115 z" transform="matrix(-0.99294382,-0.11858574,-0.11858574,0.99294382,160.46054,18.605373)"/><path style="opacity:1;fill:url(#linearGradient9061);fill-opacity:1;stroke:none;stroke-width:1;stroke-miterlimit:4;stroke-dasharray:none;stroke-dashoffset:0;stroke-opacity:1;filter:url(#filter6722)" id="path6611" d="m 84.462801,315.17517 15.28853,11.27842 11.779679,40.10103 -14.285999,-20.30115 z" transform="matrix(-0.81488951,-0.25259657,-0.24902539,0.82657551,186.92631,87.752793)"/><path id="path6613" d="m -51.593752,379.68007 3.878091,-6.30879 4.821931,-7.77646 6.114828,-9.12056 31.479971,-33.96818 3.8214476,5.60631 -23.3917906,28.28121 -5.506116,20.75606 0.217836,25.38838 -11.144516,-23.57741 1.51663,27.55981 c -2.443933,-6.2385 -1.759173,-12.47699 -7.332976,-18.71549 l -0.493616,18.14605 -5.466582,-14.10969 -2.672873,13.35215 -1.511905,-9.63838 c -2.973118,11.51129 -8.189485,8.44147 -12.284228,12.6622 z" transform="rotate(15.992509,23.148251,300.87469)" style="opacity:1;fill:url(#linearGradient9063);fill-opacity:1;stroke:none;stroke-width:1;stroke-miterlimit:4;stroke-dasharray:none;stroke-dashoffset:0;stroke-opacity:1;filter:url(#filter6703)"/><path id="path6615" d="m 86.514644,330.95576 c 11.068411,-3.75933 9.167242,8.38067 13.487316,20.31034 l 5.01263,24.06062 -14.285996,-20.30115 z" transform="matrix(-1.3540761,-0.38043788,-0.54111093,0.95200783,298.8148,34.223497)" style="opacity:1;fill:url(#linearGradient9065);fill-opacity:1;stroke:none;stroke-width:1;stroke-miterlimit:4;stroke-dasharray:none;stroke-dashoffset:0;stroke-opacity:1;filter:url(#filter6722)"/><path style="opacity:1;fill:url(#linearGradient9067);fill-opacity:1;stroke:none;stroke-width:1;stroke-miterlimit:4;stroke-dasharray:none;stroke-dashoffset:0;stroke-opacity:1;filter:url(#filter6722)" id="path6617" d="m 86.514644,330.95576 c 11.068411,-3.75933 9.167242,8.38067 13.487316,20.31034 l 5.01263,24.06062 -14.285996,-20.30115 z" transform="matrix(-1.3540761,-0.38043788,-0.54111093,0.95200783,311.34637,34.223497)"/><path id="path6619" d="m 86.514644,330.95576 c 11.068411,-3.75933 15.739866,9.45664 20.059946,21.38631 l -1.56,22.98465 -14.285996,-20.30115 z" transform="matrix(-0.94826287,-1.0387745,-0.96260175,0.52203239,447.03055,238.88258)" style="opacity:1;fill:url(#linearGradient9069);fill-opacity:1;stroke:none;stroke-width:1;stroke-miterlimit:4;stroke-dasharray:none;stroke-dashoffset:0;stroke-opacity:1;filter:url(#filter6722)"/><path style="opacity:1;fill:url(#linearGradient9071);fill-opacity:1;stroke:none;stroke-width:1;stroke-miterlimit:4;stroke-dasharray:none;stroke-dashoffset:0;stroke-opacity:1;filter:url(#filter6722)" id="path6621" d="m 66.166704,320.43843 19.518479,6.02017 9.804884,3.75006 7.991493,3.8691 -2.5452,-5.01689 7.97205,5.14346 9.34765,8.65636 10.61909,10.00679 2.76216,3.27653 0.60015,9.32094 10.33862,15.60791 -9.5286,-3.02729 -5.59677,-19.39772 -5.57806,16.48002 -3.84373,-20.48644 -1.67967,6.18444 -10.66108,-16.65759 -3.51894,13.17935 -6.854441,-14.69512 -1.142736,7.40776 -5.213025,8.43849 4.275886,13.31912 -14.286,-20.30115 z" transform="matrix(-0.58943505,-0.80781578,-0.80781578,0.58943505,325.7138,160.12485)"/><path id="path6623" d="m 96.18793,373.04218 -5.179565,3.76348 -0.01727,-15.20808 -5.395534,12.06972 2.546561,-21.12743 -10.095901,23.6178 1.743381,-18.21966 -6.851768,-21.36123 -6.22955,-4.0727 -4.153891,-10.83722 19.702156,12.65564 2.96901,4.26055 5.937338,8.10681 4.56549,9.70001 9.286203,18.93685 -7.464835,-7.85125 z" transform="matrix(-1.4029229,-0.10031094,-0.33857041,1.0413885,191.369,-36.537902)" style="opacity:1;fill:url(#linearGradient9073);fill-opacity:1;stroke:none;stroke-width:1;stroke-miterlimit:4;stroke-dasharray:none;stroke-dashoffset:0;stroke-opacity:1;filter:url(#filter6722)"/><path id="path6625" d="m 78.737228,329.74672 19.965113,15.68385 6.312249,29.89615 -15.3096,-18.27552 c -6.811393,-8.27084 -7.626009,-19.03364 -10.967762,-27.30448 z" transform="matrix(-0.93686437,-0.34969295,-0.34969295,0.93686437,187.05344,17.149757)" style="opacity:1;fill:url(#linearGradient9075);fill-opacity:1;stroke:none;stroke-width:1;stroke-miterlimit:4;stroke-dasharray:none;stroke-dashoffset:0;stroke-opacity:1;filter:url(#filter6722)"/><path id="path6627" d="m 66.166704,320.43843 19.518479,6.02017 9.804884,3.75006 7.991493,3.8691 -2.5452,-5.01689 7.97205,5.14346 9.34765,8.65636 10.61909,10.00679 2.76216,3.27653 0.60015,9.32094 10.33862,15.60791 -9.5286,-3.02729 -5.59677,-19.39772 -5.57806,16.48002 -3.84373,-20.48644 -1.67967,6.18444 -10.66108,-16.65759 -3.51894,13.17935 -6.854441,-14.69512 -1.142736,7.40776 -5.213025,8.43849 4.275886,13.31912 -14.286,-20.30115 z" transform="matrix(-0.58943505,-0.80781578,-0.80781578,0.58943505,379.9441,176.42938)" style="opacity:1;fill:url(#linearGradient9077);fill-opacity:1;stroke:none;stroke-width:1;stroke-miterlimit:4;stroke-dasharray:none;stroke-dashoffset:0;stroke-opacity:1;filter:url(#filter6722)"/><path style="opacity:1;fill:url(#linearGradient9079);fill-opacity:1;stroke:none;stroke-width:1;stroke-miterlimit:4;stroke-dasharray:none;stroke-dashoffset:0;stroke-opacity:1;filter:url(#filter6722)" id="path6629" d="m 75.919536,328.69498 22.782805,16.73559 6.312249,29.89615 -15.3096,-18.27552 C 82.893597,348.78036 65.559118,327.11123 75.919536,328.69498 Z" transform="matrix(-0.93686437,-0.34969295,-0.34969295,0.93686437,204.34701,12.63839)"/><path id="path6631" d="m 78.649584,329.98152 20.052757,15.44905 6.312249,29.89615 -15.3096,-18.27552 c -2.261271,-2.65536 -16.244007,-5.0249 -29.345014,-7.43596 -11.093944,-2.04169 -24.216664,3.52997 -25.539164,0.84021 -0.468858,-0.95359 12.776331,-14.24093 23.745401,-18.26174 11.004658,-0.17076 14.146326,-2.13719 20.083371,-2.21219 z" transform="matrix(-0.93686437,-0.34969295,-0.34969295,0.93686437,216.37732,12.889021)" style="opacity:1;fill:url(#linearGradient9081);fill-opacity:1;stroke:none;stroke-width:1;stroke-miterlimit:4;stroke-dasharray:none;stroke-dashoffset:0;stroke-opacity:1;filter:url(#filter6722)"/><path style="opacity:1;fill:url(#linearGradient9083);fill-opacity:1;stroke:none;stroke-width:1;stroke-miterlimit:4;stroke-dasharray:none;stroke-dashoffset:0;stroke-opacity:1;filter:url(#filter6722)" id="path6633" d="m 66.166704,320.43843 19.518479,6.02017 9.804884,3.75006 7.991493,3.8691 -2.5452,-5.01689 7.97205,5.14346 9.34765,8.65636 10.61909,10.00679 2.76216,3.27653 0.60015,9.32094 10.33862,15.60791 -9.5286,-3.02729 -5.59677,-19.39772 -5.57806,16.48002 -3.84373,-20.48644 -1.67967,6.18444 -10.66108,-16.65759 -3.51894,13.17935 -6.854441,-14.69512 -1.142736,7.40776 -5.213025,8.43849 4.275886,13.31912 -14.286,-20.30115 c -4.837289,-8.91488 -15.832375,-2.40145 -12.78221,-31.0783 z" transform="matrix(-0.58943505,-0.80781578,-0.80781578,0.58943505,376.04519,182.63219)"/><path id="path6635" d="m 84.462801,315.17517 15.28853,11.27842 11.779679,40.10103 -14.285999,-20.30115 z" transform="matrix(-0.81488951,-0.25259657,-0.24902539,0.82657551,186.92631,87.752793)" style="opacity:1;fill:url(#linearGradient9085);fill-opacity:1;stroke:none;stroke-width:1;stroke-miterlimit:4;stroke-dasharray:none;stroke-dashoffset:0;stroke-opacity:1;filter:url(#filter6722)"/><path style="opacity:1;fill:url(#linearGradient9087);fill-opacity:1;stroke:none;stroke-width:1;stroke-miterlimit:4;stroke-dasharray:none;stroke-dashoffset:0;stroke-opacity:1;filter:url(#filter6722)" id="path6637" d="m 63.751134,313.43239 14.325333,-4.74616 4.665865,8.40403 6.303738,4.4645 c 11.92813,16.15922 18.12575,35.68694 20.25772,57.60455 l -19.945456,-41.35254 -6.513738,-5.09974 c 1.049445,7.27239 3.382267,15.25377 7.016221,23.82582 5.686457,13.41365 13.893023,28.03093 20.245823,41.77966 L 79.384573,364.1458 70.101982,325.97865 Z" transform="matrix(-0.21955023,-0.51475043,-0.45551396,0.35454812,220.07912,196.15334)"/><path id="path6639" d="m 99.478946,324.19331 5.447044,22.16512 -7.821705,-12.05102 -12.366474,-16.09494 8.933035,-0.61188 11.037414,-6.40081 6.7192,7.48756 0.0865,7.39358 15.0549,45.9876 -14.286,-20.30115 z" transform="matrix(-0.29760235,-0.68488969,-0.40643826,0.50149015,220.98874,189.98324)" style="opacity:1;fill:url(#linearGradient9089);fill-opacity:1;stroke:none;stroke-width:1;stroke-miterlimit:4;stroke-dasharray:none;stroke-dashoffset:0;stroke-opacity:1;filter:url(#filter6722)"/></g><g id="g6695" transform="matrix(-1,0,0,1,125.22392,1.0025259)"><path id="path6643" d="m 240.34961,1213.0195 42.9707,118.8731 4.88867,12.1074 -2.74776,-5.4389 -27.36775,29.5951 -26.07394,37.9805 57.4082,-26.3281 8.78907,-8.7481 -3.25056,1.656 -18.1769,22.0008 -10.53572,35.1429 44.09404,-17.1922 -7.86357,7.178 -20.93777,30.2299 1.72321,29.3382 34.08789,-20.7539 1.18555,-1.5723 -27.75056,33.9852 20.34821,-4.1961 -2.22851,31.8925 0.0625,-5.6152 0.28097,-4.5357 14.22098,-1.4741 -2.11133,12.0723 8.27344,40.2344 1.7168,-19.8242 6.75781,3.3496 7.31836,-1.9356 4.03906,27.0156 4.29492,-40.8515 -0.14453,-0.5723 1.57422,-7.4316 10.56055,39.9199 -0.17383,-41.0742 -8.92383,-20.4844 -1.06054,-21.248 3.54882,3.6132 19.88672,25.3575 -12.95703,-29.2266 -11.71094,-11.0996 -3.49609,-22.2891 5.52148,4.3301 38.27344,11.3105 -23.95508,-21.7773 -25.46484,-20.1816 -3.58008,-13.9883 32.79688,7.459 -23.95508,-21.7754 -17.4043,-14.6407 -3.7952,-15.7435 11.89286,14.0873 58.32617,-7.2461 -44.69336,-19.8105 -36.36133,-13.795 -1.04882,-0.8261 -2.98438,-7.3047 13.12305,4.5351 58.32812,-7.2461 -44.69531,-19.8105 -44.30664,-15.8164 -55.52734,-71.3613 -1.00977,-0.049 z" transform="matrix(-0.26458333,0,0,0.26458333,118.34361,1.8898809)" style="opacity:1;fill:url(#linearGradient6739);fill-opacity:1;fill-rule:nonzero;stroke:none;stroke-width:3.77952743;stroke-linecap:round;stroke-linejoin:bevel;stroke-miterlimit:4;stroke-dasharray:none;stroke-opacity:1;paint-order:markers fill stroke;filter:url(#filter6633)"/><path style="opacity:1;fill:url(#linearGradient6741);fill-opacity:1;stroke:none;stroke-width:1;stroke-miterlimit:4;stroke-dasharray:none;stroke-dashoffset:0;stroke-opacity:1;filter:url(#filter6668)" id="path6646" d="m 60.484058,355.1688 10.243351,-11.80539 7.324675,10.51979 -16.630952,13.79614 -19.843751,-13.79613 5.884954,-11.88624 z"/><path id="path6648" d="m 60.011587,347.42028 10.243351,-11.80539 7.324675,10.51979 -16.630952,13.79614 -19.843751,-13.79613 5.884954,-11.88624 z" style="opacity:1;fill:url(#linearGradient6743);fill-opacity:1;stroke:none;stroke-width:1;stroke-miterlimit:4;stroke-dasharray:none;stroke-dashoffset:0;stroke-opacity:1;filter:url(#filter6668)"/><path style="opacity:1;fill:url(#linearGradient6745);fill-opacity:1;stroke:none;stroke-width:1;stroke-miterlimit:4;stroke-dasharray:none;stroke-dashoffset:0;stroke-opacity:1;filter:url(#filter6668)" id="path6650" d="M 60.767539,340.8057 71.01089,329.00031 78.335565,339.5201 61.704613,353.31624 41.860862,339.52011 47.745816,327.63387 Z"/><path style="opacity:1;fill:url(#linearGradient9091);fill-opacity:1;stroke:none;stroke-width:1;stroke-miterlimit:4;stroke-dasharray:none;stroke-dashoffset:0;stroke-opacity:1;filter:url(#filter6722)" id="path6652" d="m 99.500689,320.68907 15.288531,11.27842 11.77968,40.10103 -14.286,-20.30115 z" transform="matrix(-1.2224229,-1.4447578,-1.6852819,1.0479582,731.82213,142.31013)"/><path id="path6654" d="m 60.956527,329.84439 7.030553,-7.08069 5.245807,10.3308 -11.339286,9.26043 -12.473216,-9.4494 3.239121,-10.18535 z" style="opacity:1;fill:url(#linearGradient6749);fill-opacity:1;stroke:none;stroke-width:1;stroke-miterlimit:4;stroke-dasharray:none;stroke-dashoffset:0;stroke-opacity:1;filter:url(#filter6668)"/><path style="opacity:1;fill:url(#linearGradient9093);fill-opacity:1;stroke:none;stroke-width:1;stroke-miterlimit:4;stroke-dasharray:none;stroke-dashoffset:0;stroke-opacity:1;filter:url(#filter6703)" id="path6656" d="m -51.593752,379.68007 3.878091,-6.30879 4.821931,-7.77646 6.114828,-9.12056 18.446399,-16.67516 16.8550196,-11.68671 -23.3917906,28.28121 -5.506116,20.75606 0.217836,25.38838 -11.144516,-23.57741 1.51663,27.55981 c -2.443933,-6.2385 -1.759173,-12.47699 -7.332976,-18.71549 l -0.493616,18.14605 -5.466582,-14.10969 -2.672873,13.35215 -1.511905,-9.63838 c -2.973118,11.51129 -8.189485,8.44147 -12.284228,12.6622 z"/><path id="path6658" d="m 80.703334,330.21306 19.298626,21.05304 5.01263,24.06062 -14.285996,-20.30115 z" transform="matrix(-1,0,0,1,76.322039,3.7594719)" style="opacity:1;fill:url(#linearGradient9095);fill-opacity:1;stroke:none;stroke-width:1;stroke-miterlimit:4;stroke-dasharray:none;stroke-dashoffset:0;stroke-opacity:1;filter:url(#filter6722)"/><path style="opacity:1;fill:url(#linearGradient6755);fill-opacity:1;stroke:none;stroke-width:1;stroke-miterlimit:4;stroke-dasharray:none;stroke-dashoffset:0;stroke-opacity:1;filter:url(#filter6722)" id="path6660" d="m 66.166704,320.43843 15.28853,11.27842 11.77968,40.10103 -14.286,-20.30115 z" transform="matrix(-1,0,0,1,76.322039,3.7594719)"/><path id="path6662" d="m 99.500689,320.68907 15.288531,11.27842 11.77968,40.10103 -14.286,-20.30115 z" transform="matrix(-0.99294382,-0.11858574,-0.11858574,0.99294382,160.46054,18.605373)" style="opacity:1;fill:url(#linearGradient9097);fill-opacity:1;stroke:none;stroke-width:1;stroke-miterlimit:4;stroke-dasharray:none;stroke-dashoffset:0;stroke-opacity:1;filter:url(#filter6722)"/><path id="path6664" d="m 84.462801,315.17517 15.28853,11.27842 11.779679,40.10103 -14.285999,-20.30115 z" transform="matrix(-0.81488951,-0.25259657,-0.24902539,0.82657551,186.92631,87.752793)" style="opacity:1;fill:url(#linearGradient9099);fill-opacity:1;stroke:none;stroke-width:1;stroke-miterlimit:4;stroke-dasharray:none;stroke-dashoffset:0;stroke-opacity:1;filter:url(#filter6722)"/><path style="opacity:1;fill:url(#linearGradient6751);fill-opacity:1;stroke:none;stroke-width:1;stroke-miterlimit:4;stroke-dasharray:none;stroke-dashoffset:0;stroke-opacity:1;filter:url(#filter6703)" id="path6666" d="m -51.593752,379.68007 3.878091,-6.30879 4.821931,-7.77646 6.114828,-9.12056 31.479971,-33.96818 3.8214476,5.60631 -23.3917906,28.28121 -5.506116,20.75606 0.217836,25.38838 -11.144516,-23.57741 1.51663,27.55981 c -2.443933,-6.2385 -1.759173,-12.47699 -7.332976,-18.71549 l -0.493616,18.14605 -5.466582,-14.10969 -2.672873,13.35215 -1.511905,-9.63838 c -2.973118,11.51129 -8.189485,8.44147 -12.284228,12.6622 z" transform="rotate(15.992509,23.148251,300.87469)"/><path style="opacity:1;fill:url(#linearGradient9101);fill-opacity:1;stroke:none;stroke-width:1;stroke-miterlimit:4;stroke-dasharray:none;stroke-dashoffset:0;stroke-opacity:1;filter:url(#filter6722)" id="path6668" d="m 86.514644,330.95576 c 11.068411,-3.75933 9.167242,8.38067 13.487316,20.31034 l 5.01263,24.06062 -14.285996,-20.30115 z" transform="matrix(-1.3540761,-0.38043788,-0.54111093,0.95200783,298.8148,34.223497)"/><path id="path6670" d="m 86.514644,330.95576 c 11.068411,-3.75933 9.167242,8.38067 13.487316,20.31034 l 5.01263,24.06062 -14.285996,-20.30115 z" transform="matrix(-1.3540761,-0.38043788,-0.54111093,0.95200783,311.34637,34.223497)" style="opacity:1;fill:url(#linearGradient9103);fill-opacity:1;stroke:none;stroke-width:1;stroke-miterlimit:4;stroke-dasharray:none;stroke-dashoffset:0;stroke-opacity:1;filter:url(#filter6722)"/><path style="opacity:1;fill:url(#linearGradient6767);fill-opacity:1;stroke:none;stroke-width:1;stroke-miterlimit:4;stroke-dasharray:none;stroke-dashoffset:0;stroke-opacity:1;filter:url(#filter6722)" id="path6673" d="m 86.514644,330.95576 c 11.068411,-3.75933 15.739866,9.45664 20.059946,21.38631 l -1.56,22.98465 -14.285996,-20.30115 z" transform="matrix(-0.94826287,-1.0387745,-0.96260175,0.52203239,447.03055,238.88258)"/><path id="path6675" d="m 66.166704,320.43843 19.518479,6.02017 9.804884,3.75006 7.991493,3.8691 -2.5452,-5.01689 7.97205,5.14346 9.34765,8.65636 10.61909,10.00679 2.76216,3.27653 0.60015,9.32094 10.33862,15.60791 -9.5286,-3.02729 -5.59677,-19.39772 -5.57806,16.48002 -3.84373,-20.48644 -1.67967,6.18444 -10.66108,-16.65759 -3.51894,13.17935 -6.854441,-14.69512 -1.142736,7.40776 -5.213025,8.43849 4.275886,13.31912 -14.286,-20.30115 z" transform="matrix(-0.58943505,-0.80781578,-0.80781578,0.58943505,325.7138,160.12485)" style="opacity:1;fill:url(#linearGradient6769);fill-opacity:1;stroke:none;stroke-width:1;stroke-miterlimit:4;stroke-dasharray:none;stroke-dashoffset:0;stroke-opacity:1;filter:url(#filter6722)"/><path style="opacity:1;fill:url(#linearGradient9105);fill-opacity:1;stroke:none;stroke-width:1;stroke-miterlimit:4;stroke-dasharray:none;stroke-dashoffset:0;stroke-opacity:1;filter:url(#filter6722)" id="path6677" d="m 96.18793,373.04218 -5.179565,3.76348 -0.01727,-15.20808 -5.395534,12.06972 2.546561,-21.12743 -10.095901,23.6178 1.743381,-18.21966 -6.851768,-21.36123 -6.22955,-4.0727 -4.153891,-10.83722 19.702156,12.65564 2.96901,4.26055 5.937338,8.10681 4.56549,9.70001 9.286203,18.93685 -7.464835,-7.85125 z" transform="matrix(-1.4029229,-0.10031094,-0.33857041,1.0413885,191.369,-36.537902)"/><path style="opacity:1;fill:url(#linearGradient9107);fill-opacity:1;stroke:none;stroke-width:1;stroke-miterlimit:4;stroke-dasharray:none;stroke-dashoffset:0;stroke-opacity:1;filter:url(#filter6722)" id="path6679" d="m 78.737228,329.74672 19.965113,15.68385 6.312249,29.89615 -15.3096,-18.27552 c -6.811393,-8.27084 -7.626009,-19.03364 -10.967762,-27.30448 z" transform="matrix(-0.93686437,-0.34969295,-0.34969295,0.93686437,187.05344,17.149757)"/><path style="opacity:1;fill:url(#linearGradient9109);fill-opacity:1;stroke:none;stroke-width:1;stroke-miterlimit:4;stroke-dasharray:none;stroke-dashoffset:0;stroke-opacity:1;filter:url(#filter6722)" id="path6681" d="m 66.166704,320.43843 19.518479,6.02017 9.804884,3.75006 7.991493,3.8691 -2.5452,-5.01689 7.97205,5.14346 9.34765,8.65636 10.61909,10.00679 2.76216,3.27653 0.60015,9.32094 10.33862,15.60791 -9.5286,-3.02729 -5.59677,-19.39772 -5.57806,16.48002 -3.84373,-20.48644 -1.67967,6.18444 -10.66108,-16.65759 -3.51894,13.17935 -6.854441,-14.69512 -1.142736,7.40776 -5.213025,8.43849 4.275886,13.31912 -14.286,-20.30115 z" transform="matrix(-0.58943505,-0.80781578,-0.80781578,0.58943505,379.9441,176.42938)"/><path id="path6683" d="m 75.919536,328.69498 22.782805,16.73559 6.312249,29.89615 -15.3096,-18.27552 C 82.893597,348.78036 65.559118,327.11123 75.919536,328.69498 Z" transform="matrix(-0.93686437,-0.34969295,-0.34969295,0.93686437,204.34701,12.63839)" style="opacity:1;fill:url(#linearGradient9111);fill-opacity:1;stroke:none;stroke-width:1;stroke-miterlimit:4;stroke-dasharray:none;stroke-dashoffset:0;stroke-opacity:1;filter:url(#filter6722)"/><path style="opacity:1;fill:url(#linearGradient6753);fill-opacity:1;stroke:none;stroke-width:1;stroke-miterlimit:4;stroke-dasharray:none;stroke-dashoffset:0;stroke-opacity:1;filter:url(#filter6722)" id="path6685" d="m 78.649584,329.98152 20.052757,15.44905 6.312249,29.89615 -15.3096,-18.27552 c -2.261271,-2.65536 -16.244007,-5.0249 -29.345014,-7.43596 -11.093944,-2.04169 -24.216664,3.52997 -25.539164,0.84021 -0.468858,-0.95359 12.776331,-14.24093 23.745401,-18.26174 11.004658,-0.17076 14.146326,-2.13719 20.083371,-2.21219 z" transform="matrix(-0.93686437,-0.34969295,-0.34969295,0.93686437,216.37732,12.889021)"/><path id="path6687" d="m 66.166704,320.43843 19.518479,6.02017 9.804884,3.75006 7.991493,3.8691 -2.5452,-5.01689 7.97205,5.14346 9.34765,8.65636 10.61909,10.00679 2.76216,3.27653 0.60015,9.32094 10.33862,15.60791 -9.5286,-3.02729 -5.59677,-19.39772 -5.57806,16.48002 -3.84373,-20.48644 -1.67967,6.18444 -10.66108,-16.65759 -3.51894,13.17935 -6.854441,-14.69512 -1.142736,7.40776 -5.213025,8.43849 4.275886,13.31912 -14.286,-20.30115 c -4.837289,-8.91488 -15.832375,-2.40145 -12.78221,-31.0783 z" transform="matrix(-0.58943505,-0.80781578,-0.80781578,0.58943505,376.04519,182.63219)" style="opacity:1;fill:url(#linearGradient6775);fill-opacity:1;stroke:none;stroke-width:1;stroke-miterlimit:4;stroke-dasharray:none;stroke-dashoffset:0;stroke-opacity:1;filter:url(#filter6722)"/><path style="opacity:1;fill:url(#linearGradient6759);fill-opacity:1;stroke:none;stroke-width:1;stroke-miterlimit:4;stroke-dasharray:none;stroke-dashoffset:0;stroke-opacity:1;filter:url(#filter6722)" id="path6689" d="m 84.462801,315.17517 15.28853,11.27842 11.779679,40.10103 -14.285999,-20.30115 z" transform="matrix(-0.81488951,-0.25259657,-0.24902539,0.82657551,186.92631,87.752793)"/><path id="path6691" d="m 63.751134,313.43239 14.325333,-4.74616 4.665865,8.40403 6.303738,4.4645 c 11.92813,16.15922 18.12575,35.68694 20.25772,57.60455 l -19.945456,-41.35254 -6.513738,-5.09974 c 1.049445,7.27239 3.382267,15.25377 7.016221,23.82582 5.686457,13.41365 13.893023,28.03093 20.245823,41.77966 L 79.384573,364.1458 70.101982,325.97865 Z" transform="matrix(-0.21955023,-0.51475043,-0.45551396,0.35454812,220.07912,196.15334)" style="opacity:1;fill:url(#linearGradient6785);fill-opacity:1;stroke:none;stroke-width:1;stroke-miterlimit:4;stroke-dasharray:none;stroke-dashoffset:0;stroke-opacity:1;filter:url(#filter6722)"/><path style="opacity:1;fill:url(#linearGradient6747);fill-opacity:1;stroke:none;stroke-width:1;stroke-miterlimit:4;stroke-dasharray:none;stroke-dashoffset:0;stroke-opacity:1;filter:url(#filter6722)" id="path6693" d="m 99.478946,324.19331 5.447044,22.16512 -7.821705,-12.05102 -12.366474,-16.09494 8.933035,-0.61188 11.037414,-6.40081 6.7192,7.48756 0.0865,7.39358 15.0549,45.9876 -14.286,-20.30115 z" transform="matrix(-0.29760235,-0.68488969,-0.40643826,0.50149015,220.98874,189.98324)"/></g></g></g><g id="g6711" transform="matrix(4.2553651,0,0,4.8170346,-80.723652,-1307.7326)"><path style="opacity:1;fill:url(#linearGradient9113);fill-opacity:1;stroke:#000;stroke-width:.29999998;stroke-miterlimit:4;stroke-dasharray:none;stroke-dashoffset:0;stroke-opacity:1" id="path6701" d="m 51.499201,392.68563 c 1.785932,0.85386 4.758695,1.99784 7.654017,-0.85045 v 2.92931 l 0.746336,0.14425 -0.84083,1.27315 -0.425222,1.27569 c -0.05717,0.43823 0.332417,0.0627 0.446561,0.47955 0.08802,0.32147 -0.504886,0.028 -0.46886,0.55494 0.02963,0.43336 0.683421,1.69691 0.778251,1.94207 l 1.511906,0.0945 -1.748142,1.79541 c -2.493211,1.68341 -5.007475,2.88264 -7.748511,-1.13392 l 0.176729,-0.55478 -0.718106,-1.446 0.74517,-0.0317 -0.174215,-0.89516 -1.283817,-2.40523 0.747972,0.13568 -0.03407,-2.46324 0.558186,0.762 z"/><path id="path6703" d="m 59.317976,401.36148 c -1.785932,0.85386 -4.758695,1.99784 -7.654017,-0.85045 v 2.9293 l -0.746336,0.14426 0.840829,1.27317 0.425226,1.27566 c 0.05717,0.43826 -0.33242,0.0627 -0.446562,0.47956 -0.08802,0.32147 0.504884,0.028 0.468858,0.55494 -0.02963,0.43336 -0.683421,1.6969 -0.778251,1.94206 l -1.511903,0.0945 1.748139,1.79541 c 2.493211,1.68341 5.007475,2.88263 7.748513,-1.13393 l -0.176731,-0.55478 0.718109,-1.446 -0.745173,-0.0317 0.174215,-0.89517 1.283816,-2.40522 -0.747969,0.13568 0.03407,-2.46322 -0.558186,0.76197 z" style="opacity:1;fill:url(#linearGradient9115);fill-opacity:1;stroke:#000;stroke-width:.29999998;stroke-miterlimit:4;stroke-dasharray:none;stroke-dashoffset:0;stroke-opacity:1"/><path style="opacity:1;fill:url(#linearGradient9117);fill-opacity:1;stroke:#000;stroke-width:.29999998;stroke-miterlimit:4;stroke-dasharray:none;stroke-dashoffset:0;stroke-opacity:1" id="path6705" d="m 51.820434,407.99506 c 1.785929,0.85386 4.758692,1.99784 7.654017,-0.85045 v 2.92928 l 0.746337,0.14425 -0.84083,1.27317 -0.425225,1.27567 c -0.05717,0.43825 0.33242,0.0627 0.446561,0.47958 0.08802,0.32147 -0.504883,0.028 -0.468858,0.55491 0.02963,0.43339 0.683422,1.69693 0.778251,1.94207 l 1.511903,0.0945 -1.748139,1.79541 c -2.493211,1.68341 -5.007475,2.88263 -7.748513,-1.13395 l 0.176728,-0.55476 -0.718105,-1.446 0.745172,-0.0317 -0.174215,-0.89517 -1.283816,-2.40522 0.747969,0.13568 -0.03407,-2.46325 0.558187,0.76198 z"/><path id="path6707" d="m 51.553162,384.3417 c 1.785932,0.85387 4.758695,1.99785 7.65402,-0.85045 v 2.92929 l 0.746337,0.14425 -0.84083,1.27317 -0.425225,1.27569 c -0.05717,0.43823 0.33242,0.0627 0.446561,0.47956 0.08802,0.32147 -0.504883,0.028 -0.468858,0.55491 0.02963,0.43339 0.683422,1.69693 0.778248,1.94207 l 1.511906,0.0945 -1.748139,1.7954 c -2.493211,1.68342 -5.007475,2.88264 -7.748513,-1.13392 l 0.176728,-0.55478 -0.718105,-1.446 0.745172,-0.0317 -0.174215,-0.89516 -1.283816,-2.40522 0.747969,0.13568 -0.03407,-2.46325 0.558186,0.762 z" style="opacity:1;fill:url(#linearGradient9119);fill-opacity:1;stroke:#000;stroke-width:.29999998;stroke-miterlimit:4;stroke-dasharray:none;stroke-dashoffset:0;stroke-opacity:1"/><path style="opacity:1;fill:url(#linearGradient9121);fill-opacity:1;stroke:#000;stroke-width:.29999998;stroke-miterlimit:4;stroke-dasharray:none;stroke-dashoffset:0;stroke-opacity:1" id="path6709" d="m 59.396259,376.85815 c -1.785932,0.85386 -4.758695,1.99784 -7.654018,-0.85045 v 2.92931 l -0.746336,0.14425 0.84083,1.27315 0.425222,1.27569 c 0.05717,0.43825 -0.332417,0.0627 -0.446561,0.47955 -0.08802,0.32147 0.504886,0.028 0.46886,0.55494 -0.02963,0.43336 -0.683421,1.69691 -0.77825,1.94207 l -1.511906,0.0945 1.748141,1.79541 c 2.493211,1.68341 5.007475,2.88264 7.748511,-1.13392 l -0.176728,-0.55478 0.718105,-1.446 -0.74517,-0.0317 0.174215,-0.89517 1.283817,-2.40522 -0.747972,0.13568 0.03407,-2.46324 -0.558186,0.762 z"/></g><g id="g6723" transform="matrix(4.2553651,0,0,4.8170346,-80.723652,-1111.2375)"><path id="path6713" d="m 51.499201,392.68563 c 1.785932,0.85386 4.758695,1.99784 7.654017,-0.85045 v 2.92931 l 0.746336,0.14425 -0.84083,1.27315 -0.425222,1.27569 c -0.05717,0.43823 0.332417,0.0627 0.446561,0.47955 0.08802,0.32147 -0.504886,0.028 -0.46886,0.55494 0.02963,0.43336 0.683421,1.69691 0.778251,1.94207 l 1.511906,0.0945 -1.748142,1.79541 c -2.493211,1.68341 -5.007475,2.88264 -7.748511,-1.13392 l 0.176729,-0.55478 -0.718106,-1.446 0.74517,-0.0317 -0.174215,-0.89516 -1.283817,-2.40523 0.747972,0.13568 -0.03407,-2.46324 0.558186,0.762 z" style="opacity:1;fill:url(#linearGradient6727);fill-opacity:1;stroke:#000;stroke-width:.29999998;stroke-miterlimit:4;stroke-dasharray:none;stroke-dashoffset:0;stroke-opacity:1"/><path style="opacity:1;fill:url(#linearGradient6729);fill-opacity:1;stroke:#000;stroke-width:.29999998;stroke-miterlimit:4;stroke-dasharray:none;stroke-dashoffset:0;stroke-opacity:1" id="path6715" d="m 59.317976,401.36148 c -1.785932,0.85386 -4.758695,1.99784 -7.654017,-0.85045 v 2.9293 l -0.746336,0.14426 0.840829,1.27317 0.425226,1.27566 c 0.05717,0.43826 -0.33242,0.0627 -0.446562,0.47956 -0.08802,0.32147 0.504884,0.028 0.468858,0.55494 -0.02963,0.43336 -0.683421,1.6969 -0.778251,1.94206 l -1.511903,0.0945 1.748139,1.79541 c 2.493211,1.68341 5.007475,2.88263 7.748513,-1.13393 l -0.176731,-0.55478 0.718109,-1.446 -0.745173,-0.0317 0.174215,-0.89517 1.283816,-2.40522 -0.747969,0.13568 0.03407,-2.46322 -0.558186,0.76197 z"/><path id="path6717" d="m 51.820434,407.99506 c 1.785929,0.85386 4.758692,1.99784 7.654017,-0.85045 v 2.92928 l 0.746337,0.14425 -0.84083,1.27317 -0.425225,1.27567 c -0.05717,0.43825 0.33242,0.0627 0.446561,0.47958 0.08802,0.32147 -0.504883,0.028 -0.468858,0.55491 0.02963,0.43339 0.683422,1.69693 0.778251,1.94207 l 1.511903,0.0945 -1.748139,1.79541 c -2.493211,1.68341 -5.007475,2.88263 -7.748513,-1.13395 l 0.176728,-0.55476 -0.718105,-1.446 0.745172,-0.0317 -0.174215,-0.89517 -1.283816,-2.40522 0.747969,0.13568 -0.03407,-2.46325 0.558187,0.76198 z" style="opacity:1;fill:url(#linearGradient6731);fill-opacity:1;stroke:#000;stroke-width:.29999998;stroke-miterlimit:4;stroke-dasharray:none;stroke-dashoffset:0;stroke-opacity:1"/><path style="opacity:1;fill:url(#linearGradient6733);fill-opacity:1;stroke:#000;stroke-width:.29999998;stroke-miterlimit:4;stroke-dasharray:none;stroke-dashoffset:0;stroke-opacity:1" id="path6719" d="m 51.553162,384.3417 c 1.785932,0.85387 4.758695,1.99785 7.65402,-0.85045 v 2.92929 l 0.746337,0.14425 -0.84083,1.27317 -0.425225,1.27569 c -0.05717,0.43823 0.33242,0.0627 0.446561,0.47956 0.08802,0.32147 -0.504883,0.028 -0.468858,0.55491 0.02963,0.43339 0.683422,1.69693 0.778248,1.94207 l 1.511906,0.0945 -1.748139,1.7954 c -2.493211,1.68342 -5.007475,2.88264 -7.748513,-1.13392 l 0.176728,-0.55478 -0.718105,-1.446 0.745172,-0.0317 -0.174215,-0.89516 -1.283816,-2.40522 0.747969,0.13568 -0.03407,-2.46325 0.558186,0.762 z"/><path id="path6721" d="m 59.396259,376.85815 c -1.785932,0.85386 -4.758695,1.99784 -7.654018,-0.85045 v 2.92931 l -0.746336,0.14425 0.84083,1.27315 0.425222,1.27569 c 0.05717,0.43825 -0.332417,0.0627 -0.446561,0.47955 -0.08802,0.32147 0.504886,0.028 0.46886,0.55494 -0.02963,0.43336 -0.683421,1.69691 -0.77825,1.94207 l -1.511906,0.0945 1.748141,1.79541 c 2.493211,1.68341 5.007475,2.88264 7.748511,-1.13392 l -0.176728,-0.55478 0.718105,-1.446 -0.74517,-0.0317 0.174215,-0.89517 1.283817,-2.40522 -0.747972,0.13568 0.03407,-2.46324 -0.558186,0.762 z" style="opacity:1;fill:url(#linearGradient6735);fill-opacity:1;stroke:#000;stroke-width:.29999998;stroke-miterlimit:4;stroke-dasharray:none;stroke-dashoffset:0;stroke-opacity:1"/></g></g></g></svg>